<svg width="60" height="60" viewBox="0 0 60 60" fill="none" xmlns="http://www.w3.org/2000/svg">
    <path d="M59 0H1C0.447754 0 0 0.447754 0 1V49C0 49.5522 0.447754 50 1 50H26V52H15C14.4478 52 14 52.4478 14 53V59C14 59.5522 14.4478 60 15 60H45C45.5522 60 46 59.5522 46 59V53C46 52.4478 45.5522 52 45 52H34V50H59C59.5522 50 60 49.5522 60 49V1C60 0.447754 59.5522 0 59 0ZM44 54V58H16V54H44ZM28 52V50H32V52H28ZM58 48H2V2H58V48Z" fill="#111111"/>
    <path d="M5 46H55C55.5522 46 56 45.5522 56 45V5C56 4.44775 55.5522 4 55 4H5C4.44775 4 4 4.44775 4 5V45C4 45.5522 4.44775 46 5 46ZM6 6H54V44H6V6Z" fill="#FFBF00"/>
    <path d="M30 20C27.2388 20 25 22.2388 25 25C25 27.7612 27.2388 30 30 30C32.7612 30 35 27.7612 35 25C34.9966 22.2397 32.7603 20.0034 30 20Z" fill="#FFBF00"/>
    <path d="M10 10H14V8H8V14H10V10Z" fill="#111111"/>
    <path d="M50 40H46V42H52V36H50V40Z" fill="#111111"/>
    <path d="M35.04 16.5459C33.3838 16.1875 31.6943 16.0044 30 16C22.8716 16.1147 16.0977 19.1294 11.2412 24.3491C10.9053 24.7402 10.9224 25.3228 11.2798 25.6938C14.9346 29.2603 19.4214 31.8584 24.334 33.252L21.5859 36H8V38H22.4141L26.687 33.7271C27.7827 33.9028 28.8901 33.9941 30 34C40.5889 34 48.3931 26.0332 48.7202 25.6938C49.0776 25.3228 49.0947 24.7402 48.7588 24.3491C45.6191 20.9956 41.668 18.5083 37.2871 17.127L44.4141 10H52V8H43.5859L35.04 16.5459ZM13.4219 24.9658C16.2139 22.2915 19.5703 20.2783 23.2441 19.0742C20.3071 22.3989 20.2456 27.3726 23.1001 30.769C19.5366 29.4624 16.2529 27.4937 13.4219 24.9658ZM30 32C26.1338 32 23 28.8662 23 25C23 21.1338 26.1338 18 30 18C33.8662 18 37 21.1338 37 25C36.9956 28.8643 33.8643 31.9956 30 32ZM46.5801 24.9668C43.7505 27.4985 40.4653 29.4692 36.8999 30.7739C39.7583 27.3779 39.6992 22.4009 36.7612 19.0742C40.4336 20.2793 43.7891 22.293 46.5801 24.9668Z" fill="#111111"/>
    <path d="M45 12H51V14H45V12Z" fill="#111111"/>
    <path d="M45 16H49V18H45V16Z" fill="#111111"/>
    <path d="M8 40H12V42H8V40Z" fill="#111111"/>
    <path d="M14 40H16V42H14V40Z" fill="#111111"/>
    <path d="M18 40H24V42H18V40Z" fill="#111111"/>
    <path d="M50 32H52V34H50V32Z" fill="#111111"/>
</svg>