<svg width="380" height="150" viewBox="0 0 380 150" fill="none" xmlns="http://www.w3.org/2000/svg">
    <g opacity="0.2">
        <path d="M0 63C0 61.3431 1.34315 60 3 60H60.3333C61.9902 60 63.3333 61.3431 63.3333 63V150H3C1.34315 150 0 148.657 0 147V63Z" fill="#C4C4C4"/>
        <path d="M63.3333 33C63.3333 31.3431 64.6765 30 66.3333 30H123.667C125.324 30 126.667 31.3431 126.667 33V150H63.3333V33Z" fill="#C4C4C4"/>
        <path d="M126.667 83C126.667 81.3431 128.01 80 129.667 80H187C188.657 80 190 81.3431 190 83V150H126.667V83Z" fill="#C4C4C4"/>
        <path d="M190 103C190 101.343 191.343 100 193 100H250.333C251.99 100 253.333 101.343 253.333 103V150H190V103Z" fill="#C4C4C4"/>
        <path d="M253.333 63C253.333 61.3431 254.676 60 256.333 60H313.667C315.324 60 316.667 61.3431 316.667 63V150H253.333V63Z" fill="#C4C4C4"/>
        <path d="M316.667 3C316.667 1.34314 318.01 0 319.667 0H377C378.657 0 380 1.34315 380 3V147C380 148.657 378.657 150 377 150H316.667V3Z" fill="#C4C4C4"/>
    </g>
</svg>